<?xml version="1.0" encoding="utf-8"?>
<!-- Generator: Adobe Illustrator 26.3.1, SVG Export Plug-In . SVG Version: 6.00 Build 0)  -->
<svg version="1.1" id="Layer_1" xmlns="http://www.w3.org/2000/svg" xmlns:xlink="http://www.w3.org/1999/xlink" x="0px" y="0px"
	 viewBox="0 0 720 295.45" style="enable-background:new 0 0 720 295.45;" xml:space="preserve">
<style type="text/css">
	.st0{fill:#0088BA;}
</style>
<g>
	<path d="M154.4,122.27l22.11,15.4c0.35,0.24,0.34,0.76-0.03,0.99l-22.19,13.72l-0.15,0.09v10.47c0,0.47,0.53,0.75,0.92,0.49
		l31.69-21.07c0.16-0.11,0.26-0.29,0.26-0.49v-7.25c0-0.19-0.09-0.37-0.25-0.48l-31.69-22.91c-0.39-0.28-0.94,0-0.94,0.48v10.07
		C154.14,121.97,154.24,122.16,154.4,122.27z"/>
	<path d="M215.68,122.22c-1.49,0-2.88,0.18-4.12,0.53c-1.24,0.35-2.4,0.84-3.44,1.46c-1.05,0.62-2.01,1.38-2.85,2.26
		c-0.67,0.7-1.29,1.47-1.85,2.3v-26.15h-9.42v60.17h9.42v-22.63c0-1.31,0.2-2.59,0.59-3.81c0.39-1.21,0.98-2.3,1.74-3.23
		c0.76-0.93,1.7-1.68,2.8-2.24c1.09-0.56,2.37-0.84,3.78-0.84c2.59,0,4.47,0.86,5.59,2.56c1.14,1.74,1.72,4.37,1.72,7.79v22.4h9.53
		v-24.27c0-5.25-1.16-9.33-3.46-12.1C223.4,123.64,220.02,122.22,215.68,122.22z"/>
	<path d="M262.63,126.34c-1.26-1.34-2.88-2.37-4.8-3.07c-1.92-0.69-4.22-1.05-6.83-1.05c-1.33,0-2.72,0.12-4.13,0.35
		c-1.39,0.23-2.75,0.52-4.03,0.86c-1.28,0.34-2.44,0.73-3.46,1.14c-1.03,0.41-1.84,0.81-2.41,1.17l-0.14,0.09v8.56l0.49-0.37
		c1.72-1.29,3.71-2.34,5.93-3.12c2.22-0.77,4.51-1.16,6.83-1.16c2.27,0,4.03,0.6,5.25,1.8c1.17,1.15,1.79,3.03,1.83,5.59
		l-11.12,1.52c-2.28,0.28-4.26,0.81-5.9,1.57c-1.64,0.76-3.01,1.73-4.06,2.89c-1.05,1.16-1.84,2.5-2.33,3.98
		c-0.49,1.47-0.74,3.08-0.74,4.78c0,1.73,0.28,3.35,0.84,4.8c0.56,1.46,1.38,2.73,2.45,3.77c1.07,1.04,2.41,1.87,3.99,2.45
		c1.58,0.58,3.39,0.88,5.4,0.88c2.58,0,4.88-0.56,6.84-1.66c1.75-0.99,3.28-2.39,4.55-4.19v4.9h9.3v-25.03
		c0-2.43-0.31-4.63-0.93-6.53C264.84,129.32,263.89,127.67,262.63,126.34z M248.44,156.16c-0.95,0-1.82-0.13-2.58-0.4
		c-0.76-0.27-1.41-0.63-1.94-1.08c-0.52-0.45-0.93-1-1.21-1.64c-0.29-0.64-0.43-1.34-0.43-2.08c0-0.86,0.1-1.62,0.29-2.27
		c0.19-0.63,0.53-1.21,1.01-1.7c0.49-0.5,1.17-0.92,2.04-1.26c0.89-0.34,2.06-0.61,3.47-0.78l8.07-1.06v3.15
		c0,1.28-0.21,2.48-0.63,3.59c-0.42,1.1-1.01,2.07-1.77,2.89c-0.75,0.82-1.68,1.47-2.74,1.95
		C250.97,155.92,249.77,156.16,248.44,156.16z"/>
	<path d="M300.36,123.53c-0.66-0.23-1.4-0.45-2.22-0.64c-0.82-0.19-1.71-0.35-2.66-0.48c-0.95-0.13-1.97-0.19-3.01-0.19
		c-3.25,0-6.23,0.53-8.85,1.56c-2.63,1.04-4.9,2.52-6.75,4.41c-1.85,1.89-3.29,4.2-4.28,6.87c-0.99,2.66-1.49,5.67-1.49,8.94
		c0,2.79,0.47,5.42,1.39,7.82c0.92,2.4,2.25,4.51,3.95,6.27c1.7,1.76,3.78,3.16,6.2,4.15c2.41,0.99,5.14,1.49,8.12,1.49
		c2.45,0,4.62-0.24,6.44-0.71h0c1.82-0.48,3.44-1.12,4.8-1.92l0.15-0.09v-8.66l-0.49,0.35c-0.62,0.45-1.3,0.87-2.02,1.25
		c-0.72,0.39-1.48,0.73-2.27,1.01c-0.78,0.29-1.58,0.52-2.38,0.69c-0.79,0.17-1.56,0.26-2.3,0.26c-1.86,0-3.53-0.3-4.99-0.89
		c-1.45-0.59-2.69-1.44-3.7-2.51c-1.01-1.08-1.79-2.42-2.33-3.99c-0.54-1.57-0.82-3.36-0.82-5.33c0-2.11,0.31-4.01,0.93-5.64
		c0.62-1.63,1.47-3.01,2.54-4.12c1.07-1.11,2.35-1.96,3.8-2.54c1.46-0.58,3.05-0.87,4.72-0.87c1.7,0,3.3,0.28,4.75,0.84
		c1.45,0.56,2.82,1.31,4.06,2.23l0.49,0.36v-9.13l-0.16-0.09C301.57,124,301.02,123.77,300.36,123.53z"/>
	<polygon points="342.53,123.17 330.53,123.17 316.32,140.59 316.32,104.43 306.91,104.43 306.91,162.79 316.32,162.79 
		316.32,144.43 331.33,162.79 343.78,162.79 325.57,142.11 	"/>
	<path d="M371.57,126.34c-1.26-1.34-2.88-2.37-4.8-3.07c-1.92-0.69-4.22-1.05-6.83-1.05c-1.33,0-2.72,0.12-4.13,0.35
		c-1.39,0.23-2.75,0.52-4.03,0.86c-1.28,0.35-2.44,0.73-3.46,1.14c-1.03,0.41-1.84,0.8-2.41,1.17l-0.14,0.09v8.56l0.49-0.37
		c1.72-1.29,3.72-2.34,5.93-3.12c2.22-0.77,4.52-1.16,6.83-1.16c2.27,0,4.03,0.6,5.25,1.8c1.17,1.15,1.79,3.03,1.83,5.59
		l-11.12,1.52c-2.28,0.28-4.27,0.81-5.9,1.57c-1.64,0.76-3.01,1.73-4.06,2.89c-1.05,1.16-1.84,2.5-2.33,3.98
		c-0.49,1.47-0.74,3.08-0.74,4.78c0,1.73,0.28,3.35,0.84,4.8c0.56,1.46,1.38,2.73,2.45,3.77c1.07,1.04,2.41,1.87,3.99,2.45
		c1.58,0.58,3.39,0.88,5.4,0.88c2.58,0,4.88-0.56,6.84-1.66c1.76-0.99,3.28-2.39,4.55-4.19v4.89h9.3v-25.03
		c0-2.43-0.31-4.63-0.93-6.53C373.78,129.32,372.83,127.67,371.57,126.34z M357.38,156.16c-0.95,0-1.82-0.13-2.58-0.4
		c-0.76-0.27-1.41-0.63-1.94-1.08c-0.52-0.45-0.93-1-1.21-1.64c-0.29-0.64-0.43-1.34-0.43-2.08c0-0.86,0.1-1.62,0.29-2.27
		c0.19-0.63,0.53-1.2,1.01-1.7c0.49-0.5,1.17-0.92,2.04-1.26c0.89-0.34,2.05-0.61,3.47-0.78l8.07-1.06v3.15
		c0,1.28-0.21,2.48-0.63,3.59c-0.42,1.1-1.01,2.07-1.77,2.89c-0.76,0.82-1.68,1.47-2.74,1.95
		C359.91,155.92,358.71,156.16,357.38,156.16z"/>
	<path d="M393.42,111.37l-9.45,2.89v8.91h-6.48v7.7h6.48v20.22c0,4.05,0.97,7.2,2.88,9.36c1.92,2.18,4.91,3.29,8.9,3.29
		c0.62,0,1.28-0.04,1.96-0.12c0.68-0.08,1.33-0.18,1.95-0.31c0.62-0.13,1.2-0.27,1.72-0.42c0.54-0.16,0.98-0.34,1.31-0.52l0.15-0.09
		v-7.8l-0.48,0.32c-0.5,0.34-1.13,0.61-1.87,0.82c-0.74,0.21-1.36,0.31-1.84,0.31c-1.8,0-3.13-0.48-3.96-1.44
		c-0.83-0.97-1.26-2.66-1.26-5.04v-18.58h9.41v-7.7h-9.41V111.37z"/>
	<path d="M428.92,122.22c-1.49,0-2.88,0.18-4.12,0.53c-1.24,0.35-2.4,0.84-3.44,1.46c-1.05,0.62-2.01,1.38-2.85,2.26
		c-0.67,0.7-1.29,1.47-1.85,2.3v-24.33h-9.42v58.36h9.42v-22.63c0-1.31,0.2-2.59,0.59-3.81c0.39-1.21,0.98-2.3,1.74-3.23
		c0.76-0.93,1.7-1.68,2.8-2.24c1.09-0.56,2.37-0.84,3.78-0.84c2.59,0,4.47,0.86,5.59,2.56c1.14,1.74,1.72,4.37,1.72,7.79v22.4h9.53
		v-24.27c0-5.25-1.16-9.33-3.46-12.1C436.64,123.64,433.26,122.22,428.92,122.22z"/>
	<path d="M482.82,127.86c-1.66-1.79-3.75-3.19-6.21-4.17c-2.45-0.98-5.3-1.47-8.47-1.47c-3.07,0-5.92,0.45-8.48,1.35
		c-2.57,0.9-4.81,2.26-6.65,4.05c-1.84,1.79-3.29,4.03-4.32,6.66c-1.03,2.63-1.54,5.71-1.54,9.16c0,3.07,0.47,5.89,1.39,8.37
		c0.92,2.49,2.27,4.65,4.01,6.41c1.74,1.76,3.86,3.14,6.32,4.09c2.45,0.95,5.25,1.43,8.32,1.43c3.09,0,5.94-0.49,8.47-1.45
		c2.53-0.97,4.73-2.38,6.53-4.2c1.8-1.82,3.21-4.07,4.2-6.68c0.99-2.6,1.49-5.57,1.49-8.81c0-3.02-0.43-5.81-1.27-8.29
		C485.76,131.82,484.48,129.65,482.82,127.86z M459.95,152.8c-0.96-1.06-1.71-2.4-2.24-3.99c-0.53-1.6-0.8-3.51-0.8-5.67
		c0-2.24,0.28-4.21,0.82-5.86c0.54-1.64,1.3-3.01,2.26-4.08c0.96-1.06,2.1-1.86,3.39-2.38c1.3-0.52,2.74-0.78,4.27-0.78
		c3.24,0,5.82,1.09,7.67,3.24c1.86,2.17,2.8,5.41,2.8,9.63c0,4.25-0.89,7.52-2.66,9.73c-1.75,2.19-4.35,3.29-7.74,3.29
		c-1.58,0-3.05-0.26-4.36-0.78C462.05,154.64,460.91,153.85,459.95,152.8z"/>
	<path d="M514.48,122.22c-2.65,0-5.09,0.57-7.25,1.69c-1.97,1.03-3.74,2.71-5.24,4.99v-5.73h-9.42v39.62h9.42v-22.48
		c0-1.51,0.23-2.91,0.68-4.16c0.46-1.25,1.09-2.35,1.88-3.25c0.79-0.9,1.74-1.61,2.83-2.11c1.09-0.5,2.27-0.75,3.51-0.75
		c2.62,0,4.54,0.86,5.71,2.55c1.19,1.73,1.79,4.42,1.79,8v22.21h9.42v-24.27c0-5.43-1.17-9.55-3.48-12.24
		C522.01,123.59,518.7,122.22,514.48,122.22z"/>
	<path d="M532.53,164.44v8.03c0,0.39,0.31,0.7,0.7,0.7h31.6c0.39,0,0.7-0.31,0.7-0.7v-8.03c0-0.39-0.31-0.7-0.7-0.7h-31.6
		C532.84,163.74,532.53,164.05,532.53,164.44z"/>
	<g>
		<path class="st0" d="M344.45,179.3h6.26c1.11,0,2.15,0.22,3.12,0.67c0.97,0.45,1.82,1.04,2.55,1.78c0.73,0.74,1.3,1.6,1.72,2.59
			s0.63,2.02,0.63,3.1c0,1.06-0.2,2.09-0.61,3.08c-0.41,0.99-0.98,1.85-1.7,2.6c-0.73,0.75-1.57,1.35-2.55,1.79
			c-0.97,0.45-2.02,0.67-3.14,0.67h-6.26V179.3z M348.68,191.99h0.97c0.73,0,1.39-0.12,1.96-0.35c0.58-0.23,1.06-0.55,1.46-0.95
			c0.4-0.4,0.7-0.88,0.91-1.43s0.31-1.16,0.31-1.82c0-0.65-0.11-1.25-0.32-1.81c-0.22-0.56-0.52-1.04-0.92-1.45
			c-0.4-0.4-0.88-0.72-1.46-0.95c-0.58-0.23-1.22-0.35-1.94-0.35h-0.97V191.99z"/>
		<path class="st0" d="M370.13,182.88h-5.03v2.72h4.75v3.58h-4.75v2.8h5.03v3.58h-9.26V179.3h9.26V182.88z"/>
		<path class="st0" d="M381.95,182.88h-5.09v2.72h4.64v3.58h-4.64v6.39h-4.23V179.3h9.32V182.88z"/>
		<path class="st0" d="M388.17,179.3v16.27h-4.23V179.3H388.17z"/>
		<path class="st0" d="M391.04,195.57V179.3h4.23l7.81,9.95v-9.95h4.21v16.27h-4.21l-7.81-9.95v9.95H391.04z"/>
		<path class="st0" d="M419.41,182.88h-5.03v2.72h4.75v3.58h-4.75v2.8h5.03v3.58h-9.26V179.3h9.26V182.88z"/>
		<path class="st0" d="M432.94,195.57h-4.23V179.3h6.73c1.83,0,3.23,0.47,4.2,1.42c0.97,0.95,1.46,2.29,1.46,4.01
			c0,1.73-0.49,3.06-1.46,4.01c-0.97,0.95-2.37,1.42-4.2,1.42h-2.5V195.57z M432.94,186.77h1.4c1.55,0,2.33-0.68,2.33-2.03
			c0-1.35-0.78-2.03-2.33-2.03h-1.4V186.77z"/>
		<path class="st0" d="M442.07,187.43c0-1.21,0.22-2.33,0.67-3.38c0.45-1.04,1.06-1.95,1.86-2.73c0.79-0.78,1.74-1.38,2.84-1.82
			c1.1-0.44,2.31-0.66,3.64-0.66c1.31,0,2.52,0.22,3.63,0.66c1.11,0.44,2.06,1.05,2.86,1.82c0.8,0.78,1.42,1.69,1.87,2.73
			c0.45,1.04,0.67,2.17,0.67,3.38s-0.22,2.33-0.67,3.38c-0.45,1.04-1.07,1.95-1.87,2.73c-0.8,0.78-1.75,1.39-2.86,1.82
			c-1.11,0.44-2.32,0.66-3.63,0.66c-1.32,0-2.54-0.22-3.64-0.66c-1.1-0.44-2.05-1.05-2.84-1.82c-0.79-0.78-1.41-1.69-1.86-2.73
			C442.29,189.77,442.07,188.64,442.07,187.43z M446.49,187.43c0,0.65,0.12,1.24,0.37,1.79c0.24,0.55,0.58,1.02,0.99,1.42
			c0.42,0.4,0.9,0.72,1.46,0.94c0.55,0.22,1.14,0.33,1.76,0.33c0.62,0,1.2-0.11,1.76-0.33c0.55-0.22,1.04-0.54,1.47-0.94
			c0.42-0.4,0.76-0.88,1-1.42c0.24-0.55,0.37-1.14,0.37-1.79c0-0.65-0.12-1.24-0.37-1.79s-0.58-1.02-1-1.42
			c-0.42-0.4-0.91-0.72-1.47-0.94c-0.55-0.22-1.14-0.33-1.76-0.33c-0.62,0-1.21,0.11-1.76,0.33c-0.55,0.22-1.04,0.54-1.46,0.94
			c-0.42,0.4-0.75,0.88-0.99,1.42S446.49,186.79,446.49,187.43z"/>
		<path class="st0" d="M471.15,183.46c-0.46-0.37-0.92-0.65-1.38-0.83c-0.46-0.18-0.91-0.27-1.34-0.27c-0.55,0-0.99,0.13-1.34,0.39
			c-0.35,0.26-0.52,0.6-0.52,1.01c0,0.29,0.09,0.53,0.26,0.71c0.17,0.19,0.4,0.35,0.68,0.49c0.28,0.14,0.6,0.26,0.95,0.36
			c0.35,0.1,0.7,0.21,1.05,0.32c1.38,0.46,2.39,1.08,3.03,1.84c0.64,0.77,0.96,1.77,0.96,3.01c0,0.83-0.14,1.59-0.42,2.27
			c-0.28,0.68-0.69,1.25-1.23,1.74c-0.54,0.48-1.2,0.86-1.99,1.12c-0.78,0.27-1.67,0.4-2.66,0.4c-2.06,0-3.96-0.61-5.72-1.83
			l1.81-3.41c0.63,0.56,1.26,0.98,1.88,1.25c0.62,0.27,1.23,0.41,1.83,0.41c0.69,0,1.2-0.16,1.54-0.47
			c0.34-0.32,0.51-0.68,0.51-1.08c0-0.24-0.04-0.46-0.13-0.64c-0.09-0.18-0.23-0.35-0.43-0.5c-0.2-0.15-0.46-0.29-0.79-0.42
			c-0.32-0.13-0.72-0.27-1.18-0.43c-0.55-0.17-1.08-0.36-1.61-0.57c-0.53-0.21-0.99-0.49-1.4-0.83c-0.41-0.35-0.74-0.78-0.99-1.31
			c-0.25-0.52-0.38-1.19-0.38-2s0.13-1.54,0.4-2.19c0.27-0.65,0.64-1.22,1.12-1.68c0.48-0.47,1.07-0.83,1.77-1.09
			c0.7-0.26,1.48-0.39,2.34-0.39c0.81,0,1.65,0.11,2.52,0.34s1.72,0.55,2.52,0.98L471.15,183.46z"/>
		<path class="st0" d="M484.55,183.46c-0.46-0.37-0.92-0.65-1.38-0.83c-0.46-0.18-0.91-0.27-1.34-0.27c-0.55,0-0.99,0.13-1.34,0.39
			c-0.35,0.26-0.52,0.6-0.52,1.01c0,0.29,0.09,0.53,0.26,0.71c0.17,0.19,0.4,0.35,0.68,0.49c0.28,0.14,0.6,0.26,0.95,0.36
			c0.35,0.1,0.7,0.21,1.05,0.32c1.38,0.46,2.39,1.08,3.03,1.84c0.64,0.77,0.96,1.77,0.96,3.01c0,0.83-0.14,1.59-0.42,2.27
			c-0.28,0.68-0.69,1.25-1.23,1.74c-0.54,0.48-1.2,0.86-1.99,1.12c-0.78,0.27-1.67,0.4-2.66,0.4c-2.06,0-3.96-0.61-5.72-1.83
			l1.81-3.41c0.63,0.56,1.26,0.98,1.88,1.25c0.62,0.27,1.23,0.41,1.83,0.41c0.69,0,1.2-0.16,1.54-0.47
			c0.34-0.32,0.51-0.68,0.51-1.08c0-0.24-0.04-0.46-0.13-0.64c-0.09-0.18-0.23-0.35-0.43-0.5c-0.2-0.15-0.46-0.29-0.79-0.42
			c-0.32-0.13-0.72-0.27-1.18-0.43c-0.55-0.17-1.08-0.36-1.61-0.57c-0.53-0.21-0.99-0.49-1.4-0.83c-0.41-0.35-0.74-0.78-0.99-1.31
			c-0.25-0.52-0.38-1.19-0.38-2s0.13-1.54,0.4-2.19c0.27-0.65,0.64-1.22,1.12-1.68c0.48-0.47,1.07-0.83,1.77-1.09
			c0.7-0.26,1.48-0.39,2.34-0.39c0.81,0,1.65,0.11,2.52,0.34s1.72,0.55,2.52,0.98L484.55,183.46z"/>
		<path class="st0" d="M493.25,179.3v16.27h-4.23V179.3H493.25z"/>
		<path class="st0" d="M496.12,179.3h6.3c1.5,0,2.63,0.36,3.41,1.08c0.78,0.72,1.17,1.75,1.17,3.11c0,0.82-0.15,1.5-0.44,2.04
			c-0.3,0.54-0.74,1-1.35,1.37c0.6,0.12,1.12,0.29,1.54,0.53c0.42,0.24,0.77,0.53,1.04,0.87c0.27,0.35,0.46,0.73,0.57,1.17
			c0.11,0.43,0.17,0.89,0.17,1.38c0,0.76-0.13,1.44-0.4,2.03c-0.27,0.59-0.64,1.09-1.12,1.49c-0.48,0.4-1.07,0.7-1.76,0.91
			c-0.69,0.2-1.47,0.3-2.33,0.3h-6.8V179.3z M500.35,185.69h0.78c1.32,0,1.99-0.52,1.99-1.57c0-1.05-0.66-1.58-1.99-1.58h-0.78
			V185.69z M500.35,192.29h0.93c1.06,0,1.83-0.14,2.29-0.41c0.46-0.27,0.69-0.71,0.69-1.32c0-0.6-0.23-1.04-0.69-1.32
			c-0.46-0.27-1.22-0.41-2.29-0.41h-0.93V192.29z"/>
		<path class="st0" d="M514.74,179.3v12.69h5.07v3.58h-9.3V179.3H514.74z"/>
		<path class="st0" d="M530.71,182.88h-5.03v2.72h4.75v3.58h-4.75v2.8h5.03v3.58h-9.26V179.3h9.26V182.88z"/>
		<path class="st0" d="M532.65,193.5c0-0.35,0.06-0.67,0.19-0.98s0.31-0.58,0.54-0.81c0.23-0.23,0.5-0.41,0.81-0.54
			c0.31-0.13,0.64-0.19,0.98-0.19c0.35,0,0.67,0.06,0.98,0.19c0.31,0.13,0.58,0.31,0.81,0.54c0.23,0.23,0.41,0.5,0.54,0.81
			c0.13,0.31,0.19,0.64,0.19,0.98c0,0.35-0.06,0.67-0.19,0.98c-0.13,0.31-0.31,0.58-0.54,0.81c-0.23,0.23-0.5,0.41-0.81,0.54
			s-0.64,0.19-0.98,0.19c-0.34,0-0.67-0.06-0.98-0.19c-0.31-0.13-0.58-0.31-0.81-0.54c-0.23-0.23-0.41-0.5-0.54-0.81
			C532.72,194.17,532.65,193.84,532.65,193.5z"/>
	</g>
</g>
</svg>
